<svg width="116" height="32" viewBox="0 0 116 32" fill="none" xmlns="http://www.w3.org/2000/svg">
<path d="M2 31.44C1.30667 31.44 0.96 31.1733 0.96 30.64C0.96 30.16 1.28 29.92 1.92 29.92H2.48C2.98667 29.92 3.53333 29.56 4.12 28.84C5.45333 27.24 7.01333 23.9867 8.8 19.08C7.94667 18.2267 7.52 17.3867 7.52 16.56C7.52 15.4133 8.09333 14.84 9.24 14.84C9.61333 14.84 9.93333 14.92 10.2 15.08L12.44 8.68C12.8933 7.42667 13.3467 6.29333 13.8 5.28C14.28 4.26666 14.7733 3.34666 15.28 2.52H14.6C13.4267 2.52 12.2267 2.65333 11 2.92C9.77333 3.16 8.62667 3.53333 7.56 4.04C6.52 4.54667 5.68 5.17333 5.04 5.92C4.4 6.66667 4.08 7.54667 4.08 8.56C4.08 9.30667 4.34667 9.90667 4.88 10.36C5.41333 10.7867 6.06667 11 6.84 11C7.53333 11 8.13333 10.76 8.64 10.28C9.2 9.8 9.52 9.56 9.6 9.56C10.1067 9.56 10.36 9.78667 10.36 10.24C10.36 10.32 10.32 10.4267 10.24 10.56C9.49333 11.76 8.36 12.36 6.84 12.36C5.66667 12.36 4.68 12 3.88 11.28C3.10667 10.56 2.72 9.69333 2.72 8.68C2.72 7.37333 3.08 6.25333 3.8 5.32C4.52 4.36 5.48 3.57333 6.68 2.96C7.88 2.34667 9.2 1.89333 10.64 1.6C12.08 1.30666 13.52 1.16 14.96 1.16H16.24C16.6667 0.733332 17 0.52 17.24 0.52C17.4533 0.52 17.64 0.613332 17.8 0.799998C17.96 0.959998 18 1.14666 17.92 1.36C20.6933 1.70667 22.9467 2.62667 24.68 4.12C26.44 5.61333 27.32 7.62667 27.32 10.16C27.32 11.6 26.92 12.9467 26.12 14.2C25.32 15.4267 24.2533 16.5067 22.92 17.44C21.6133 18.3733 20.1733 19.1067 18.6 19.64C17.0267 20.1733 15.4667 20.4667 13.92 20.52C15.3333 23.24 16.7333 25.2667 18.12 26.6C20.0933 28.52 22.2533 29.48 24.6 29.48C25.0267 29.48 25.24 29.7067 25.24 30.16C25.24 30.6133 25.0267 30.84 24.6 30.84C21.8 30.84 19.2933 29.72 17.08 27.48C15.64 25.9867 14.08 23.6667 12.4 20.52C11.44 20.44 10.6133 20.24 9.92 19.92C8.74667 23.0133 7.66667 25.48 6.68 27.32C5.69333 29.16 4.78667 30.3467 3.96 30.88C3.42667 31.2533 2.77333 31.44 2 31.44ZM13.2 19.2C14.64 19.1733 16.1067 18.9467 17.6 18.52C19.0933 18.0667 20.4667 17.44 21.72 16.64C23 15.8133 24.0267 14.8533 24.8 13.76C25.5733 12.6667 25.96 11.4667 25.96 10.16C25.96 8.56 25.5333 7.22667 24.68 6.16C23.8533 5.09333 22.7333 4.26667 21.32 3.68C19.9333 3.06667 18.4 2.69333 16.72 2.56C15.8133 3.84 14.8133 6.01333 13.72 9.08C13.32 10.2533 12.92 11.4267 12.52 12.6C12.12 13.7467 11.7333 14.9067 11.36 16.08C11.92 16.8 12.5333 17.84 13.2 19.2ZM9.32 17.64L9.76 16.44C9.57333 16.28 9.36 16.2 9.12 16.2C8.93333 16.2 8.84 16.3067 8.84 16.52C8.84 16.8133 9 17.1867 9.32 17.64ZM11.64 19.08C11.5333 18.8667 11.4 18.64 11.24 18.4C11.1067 18.16 10.9467 17.9067 10.76 17.64L10.4 18.6C10.8 18.8933 11.2133 19.0533 11.64 19.08ZM33.475 29.52C31.475 29.52 29.9283 28.8933 28.835 27.64C27.7417 26.3867 27.195 24.76 27.195 22.76C27.195 19.7733 28.195 17.3467 30.195 15.48C31.9283 13.8267 33.835 13 35.915 13C37.0083 13 37.8883 13.28 38.555 13.84C39.2483 14.3733 39.595 15.1467 39.595 16.16C39.595 17.76 38.6883 19.0667 36.875 20.08C35.3017 20.9333 33.5017 21.36 31.475 21.36C30.3817 21.36 29.4883 21.2267 28.795 20.96C28.7417 21.2533 28.6883 21.56 28.635 21.88C28.6083 22.1733 28.595 22.4667 28.595 22.76C28.595 24.3867 29.0083 25.72 29.835 26.76C30.6617 27.7733 31.8617 28.28 33.435 28.28C36.2617 28.28 38.515 26.96 40.195 24.32C40.4083 24 40.595 23.7467 40.755 23.56C40.915 23.3733 41.1017 23.28 41.315 23.28C41.5817 23.28 41.715 23.44 41.715 23.76C41.715 23.9467 41.6883 24.0933 41.635 24.2C41.6083 24.3067 41.5817 24.3867 41.555 24.44C40.6483 25.9867 39.475 27.2267 38.035 28.16C36.595 29.0667 35.075 29.52 33.475 29.52ZM31.355 20C33.0617 20 34.5817 19.6667 35.915 19C37.4617 18.2533 38.235 17.28 38.235 16.08C38.235 14.9333 37.4217 14.36 35.795 14.36C34.3283 14.36 32.9683 14.9067 31.715 16C30.595 16.96 29.7417 18.1733 29.155 19.64C29.7683 19.88 30.5017 20 31.355 20ZM47.1153 29.76C45.0086 29.76 43.3686 29.08 42.1953 27.72C41.102 26.4133 40.5553 24.72 40.5553 22.64C40.5553 20.3733 41.3553 18.2667 42.9553 16.32C44.6886 14.2667 46.662 13.24 48.8753 13.24C50.1286 13.24 51.0886 13.6 51.7553 14.32C52.3686 15.0133 52.6753 15.84 52.6753 16.8C52.6753 17.84 52.342 18.7333 51.6753 19.48C50.9286 20.3333 49.942 20.76 48.7153 20.76C47.2486 20.76 46.5153 19.9733 46.5153 18.4C46.5153 17.6 46.7286 17.2 47.1553 17.2C47.6353 17.2 47.8753 17.6133 47.8753 18.44C47.8753 19.08 48.222 19.4 48.9153 19.4C49.6353 19.4 50.2086 19.1467 50.6353 18.64C51.0886 18.1067 51.3153 17.5067 51.3153 16.84C51.3153 15.3467 50.502 14.6 48.8753 14.6C47.0086 14.6 45.382 15.4533 43.9953 17.16C42.6086 18.8667 41.9153 20.6667 41.9153 22.56C41.9153 24.2933 42.3553 25.72 43.2353 26.84C44.1153 27.9333 45.3953 28.48 47.0753 28.48C48.3553 28.48 49.5686 28.12 50.7153 27.4C51.8886 26.6533 52.862 25.6267 53.6353 24.32C53.7686 24.1067 53.9286 23.8933 54.1153 23.68C54.302 23.44 54.4886 23.32 54.6753 23.32C54.9686 23.32 55.1153 23.52 55.1153 23.92C55.1153 24.1067 55.0753 24.28 54.9953 24.44C54.382 25.72 53.622 26.76 52.7153 27.56C51.8353 28.3333 50.902 28.8933 49.9153 29.24C48.9553 29.5867 48.022 29.76 47.1153 29.76ZM60.2328 29.52C58.2328 29.52 56.6861 28.8933 55.5928 27.64C54.4995 26.3867 53.9528 24.76 53.9528 22.76C53.9528 19.7733 54.9528 17.3467 56.9528 15.48C58.6861 13.8267 60.5928 13 62.6728 13C63.7661 13 64.6461 13.28 65.3128 13.84C66.0061 14.3733 66.3528 15.1467 66.3528 16.16C66.3528 17.76 65.4461 19.0667 63.6328 20.08C62.0595 20.9333 60.2595 21.36 58.2328 21.36C57.1395 21.36 56.2461 21.2267 55.5528 20.96C55.4995 21.2533 55.4461 21.56 55.3928 21.88C55.3661 22.1733 55.3528 22.4667 55.3528 22.76C55.3528 24.3867 55.7661 25.72 56.5928 26.76C57.4195 27.7733 58.6195 28.28 60.1928 28.28C63.0195 28.28 65.2728 26.96 66.9528 24.32C67.1661 24 67.3528 23.7467 67.5128 23.56C67.6728 23.3733 67.8595 23.28 68.0728 23.28C68.3395 23.28 68.4728 23.44 68.4728 23.76C68.4728 23.9467 68.4461 24.0933 68.3928 24.2C68.3661 24.3067 68.3395 24.3867 68.3128 24.44C67.4061 25.9867 66.2328 27.2267 64.7928 28.16C63.3528 29.0667 61.8328 29.52 60.2328 29.52ZM58.1128 20C59.8195 20 61.3395 19.6667 62.6728 19C64.2195 18.2533 64.9928 17.28 64.9928 16.08C64.9928 14.9333 64.1795 14.36 62.5528 14.36C61.0861 14.36 59.7261 14.9067 58.4728 16C57.3528 16.96 56.4995 18.1733 55.9128 19.64C56.5261 19.88 57.2595 20 58.1128 20ZM72.3931 13.16C71.4598 13.16 70.9931 12.6933 70.9931 11.76C70.9931 10.8267 71.4598 10.36 72.3931 10.36C73.3265 10.36 73.7931 10.8267 73.7931 11.76C73.7931 12.6933 73.3265 13.16 72.3931 13.16ZM70.5931 29.28C69.6865 29.28 68.9265 28.9467 68.3131 28.28C67.6998 27.6133 67.3931 26.7867 67.3931 25.8C67.3931 24.6 67.8465 23.0133 68.7531 21.04C69.6598 19.0667 70.1131 17.4933 70.1131 16.32C70.1131 15.8933 70.3398 15.68 70.7931 15.68C71.2465 15.68 71.4731 16.0267 71.4731 16.72C71.4731 17.68 71.0198 19.16 70.1131 21.16C69.2065 23.16 68.7531 24.6667 68.7531 25.68C68.7531 26.2933 68.9398 26.8267 69.3131 27.28C69.7131 27.7067 70.1931 27.92 70.7531 27.92C71.7398 27.92 72.6331 27.5733 73.4331 26.88C74.2331 26.1867 74.9665 25.3333 75.6331 24.32C75.9265 23.8667 76.1531 23.56 76.3131 23.4C76.4731 23.24 76.6331 23.16 76.7931 23.16C77.1398 23.16 77.3131 23.2933 77.3131 23.56C77.3131 23.72 77.2065 24.0133 76.9931 24.44C76.2465 25.8 75.3265 26.9467 74.2331 27.88C73.1398 28.8133 71.9265 29.28 70.5931 29.28ZM79.025 29.52C76.9717 29.52 75.945 27.8667 75.945 24.56C75.945 21.7867 76.545 18.3867 77.745 14.36H76.465C76.0383 14.36 75.825 14.1333 75.825 13.68C75.825 13.2267 76.0383 13 76.465 13H78.185C78.5317 11.96 78.8917 10.9867 79.265 10.08C79.6383 9.17333 80.025 8.34667 80.425 7.6C81.625 5.28 82.7983 4.12 83.945 4.12C84.8517 4.12 85.305 4.84 85.305 6.28C85.305 7.05333 85.1717 7.88 84.905 8.76C84.7183 9.37333 84.505 10.04 84.265 10.76C84.025 11.4533 83.745 12.2 83.425 13H85.385C85.8383 13 86.065 13.2267 86.065 13.68C86.065 14.1333 85.8383 14.36 85.385 14.36H82.785C81.425 17.4 79.625 20.44 77.385 23.48C77.3583 23.6933 77.345 23.9067 77.345 24.12C77.345 24.3067 77.345 24.4933 77.345 24.68C77.345 27.0533 78.0117 28.24 79.345 28.24C80.385 28.24 81.305 27.8667 82.105 27.12C82.9317 26.3733 83.6783 25.44 84.345 24.32C84.6117 23.8667 84.8383 23.56 85.025 23.4C85.2117 23.24 85.3583 23.16 85.465 23.16C85.785 23.16 85.945 23.36 85.945 23.76C85.945 23.8133 85.905 23.9467 85.825 24.16C85.7717 24.3467 85.7183 24.4667 85.665 24.52C84.8917 25.9867 83.945 27.1867 82.825 28.12C81.705 29.0533 80.4383 29.52 79.025 29.52ZM79.665 13H81.865C82.2917 12.0667 82.6383 11.24 82.905 10.52C83.1983 9.8 83.425 9.18667 83.585 8.68C83.7983 7.88 83.905 7.21333 83.905 6.68C83.905 6.09333 83.785 5.8 83.545 5.8C83.1183 5.8 82.5183 6.52 81.745 7.96C81.3983 8.62667 81.0517 9.38667 80.705 10.24C80.3583 11.0667 80.0117 11.9867 79.665 13ZM77.705 20.84C78.3183 19.8267 78.9183 18.7867 79.505 17.72C80.0917 16.6267 80.665 15.5067 81.225 14.36H79.225C78.8783 15.4267 78.5717 16.5067 78.305 17.6C78.065 18.6667 77.865 19.7467 77.705 20.84ZM98.2559 29.28C97.2693 29.28 96.4426 28.9867 95.7759 28.4C95.1093 27.7867 94.8293 26.9067 94.9359 25.76C93.3093 28.08 91.3493 29.24 89.0559 29.24C87.5893 29.24 86.4959 28.6667 85.7759 27.52C85.1893 26.6133 84.8959 25.3867 84.8959 23.84C84.8959 23.5467 84.9093 23.2533 84.9359 22.96C84.9626 22.64 85.0026 22.3333 85.0559 22.04C85.2426 20.9733 85.6026 19.9467 86.1359 18.96C86.6693 17.9467 87.3626 16.9467 88.2159 15.96C90.1359 13.8 92.1226 12.72 94.1759 12.72C95.2693 12.72 96.1759 13.04 96.8959 13.68C97.6159 14.2933 97.9759 15.16 97.9759 16.28C97.9759 16.7333 97.8559 17.1733 97.6159 17.6C98.1759 17.6267 98.4026 17.88 98.2959 18.36L97.0159 22C96.5893 23.2 96.3759 24.2933 96.3759 25.28C96.3759 26.1867 96.5626 26.8933 96.9359 27.4C97.3359 27.9067 97.8693 28.16 98.5359 28.16C98.9093 28.16 99.3226 28.0533 99.7759 27.84C100.229 27.6267 100.749 27.2667 101.336 26.76C101.736 26.4133 102.109 26.0267 102.456 25.6C102.829 25.1733 103.149 24.7467 103.416 24.32C103.576 24.08 103.749 23.8533 103.936 23.64C104.123 23.4 104.309 23.28 104.496 23.28C104.816 23.28 104.976 23.4533 104.976 23.8C104.976 23.9333 104.949 24.0667 104.896 24.2C104.869 24.3067 104.829 24.3867 104.776 24.44C104.429 25 104.043 25.5467 103.616 26.08C103.189 26.6133 102.736 27.1067 102.256 27.56C101.616 28.1467 100.949 28.5867 100.256 28.88C99.5626 29.1467 98.8959 29.28 98.2559 29.28ZM86.2559 24.04C86.2559 26.6 87.2426 27.88 89.2159 27.88C90.8959 27.88 92.3493 27.08 93.5759 25.48C93.9493 24.9733 94.3359 24.3333 94.7359 23.56C95.1359 22.7867 95.5226 21.88 95.8959 20.84C96.0026 20.5733 96.1093 20.2667 96.2159 19.92C96.3493 19.5467 96.5093 19.1333 96.6959 18.68C96.1626 19.08 95.6159 19.28 95.0559 19.28C94.0959 19.28 93.6159 19.0133 93.6159 18.48C93.6159 18.0267 93.8426 17.8 94.2959 17.8C94.3759 17.8 94.4826 17.8267 94.6159 17.88C94.7759 17.9067 94.8959 17.92 94.9759 17.92C95.3759 17.92 95.7493 17.7467 96.0959 17.4C96.4426 17.0533 96.6159 16.68 96.6159 16.28C96.6159 14.8133 95.7893 14.08 94.1359 14.08C92.4826 14.08 90.8293 15.04 89.1759 16.96C87.6026 18.72 86.6826 20.4933 86.4159 22.28C86.3626 22.5733 86.3226 22.8667 86.2959 23.16C86.2693 23.4533 86.2559 23.7467 86.2559 24.04ZM108.718 29.8C107.225 29.8 105.972 29.4133 104.958 28.64C103.812 27.76 103.238 26.5733 103.238 25.08C103.238 24.12 103.478 23.2 103.958 22.32C104.438 21.44 105.092 20.76 105.918 20.28C106.452 19.5067 107.078 18.6667 107.798 17.76C108.518 16.8533 109.332 15.8667 110.238 14.8C109.918 13.9467 109.758 13.1467 109.758 12.4C109.758 11.52 109.918 10.7467 110.238 10.08C110.665 9.17333 111.305 8.72 112.158 8.72C113.412 8.72 114.038 9.37333 114.038 10.68C114.038 11.5067 113.825 12.2133 113.398 12.8L111.878 14.96L114.398 18.48C114.878 19.1467 115.225 19.8267 115.438 20.52C115.678 21.2133 115.798 21.8933 115.798 22.56C115.798 24.56 115.118 26.2667 113.758 27.68C112.398 29.0933 110.718 29.8 108.718 29.8ZM111.278 13.6C111.652 13.1733 111.972 12.7467 112.238 12.32C112.612 11.6267 112.798 11.0933 112.798 10.72C112.798 10.32 112.585 10.12 112.158 10.12C111.438 10.12 111.078 10.8933 111.078 12.44C111.078 12.6267 111.092 12.8133 111.118 13C111.172 13.1867 111.225 13.3867 111.278 13.6ZM108.678 28.4C110.358 28.4 111.732 27.84 112.798 26.72C113.892 25.5733 114.438 24.1867 114.438 22.56C114.438 21.44 114.012 20.2933 113.158 19.12L110.918 16.08L107.958 19.76C109.825 19.8667 110.758 20.7867 110.758 22.52C110.758 23.0533 110.572 23.5867 110.198 24.12C110.012 24.3867 109.772 24.52 109.478 24.52C109.105 24.52 108.918 24.28 108.918 23.8C108.918 23.64 108.998 23.4267 109.158 23.16C109.318 22.8933 109.398 22.68 109.398 22.52C109.398 21.5867 108.892 21.12 107.878 21.12C107.558 21.12 107.252 21.16 106.958 21.24C106.985 21.8 106.758 22.4267 106.278 23.12C105.825 23.7867 105.278 24.3467 104.638 24.8C104.798 27.2 106.145 28.4 108.678 28.4Z" fill="#212121"/>
</svg>
