<svg width="11" height="14" viewBox="0 0 11 14" fill="none" xmlns="http://www.w3.org/2000/svg">
<path fill-rule="evenodd" clip-rule="evenodd" d="M3 7C3 7.13261 3.05268 7.25979 3.14645 7.35355C3.24021 7.44732 3.36739 7.5 3.5 7.5H9.293L7.146 9.646C7.05211 9.73989 6.99937 9.86722 6.99937 10C6.99937 10.1328 7.05211 10.2601 7.146 10.354C7.23989 10.4479 7.36722 10.5006 7.5 10.5006C7.63278 10.5006 7.76011 10.4479 7.854 10.354L10.854 7.354C10.9006 7.30755 10.9375 7.25238 10.9627 7.19163C10.9879 7.13089 11.0009 7.06577 11.0009 7C11.0009 6.93423 10.9879 6.86911 10.9627 6.80837C10.9375 6.74762 10.9006 6.69245 10.854 6.646L7.854 3.646C7.76011 3.55211 7.63278 3.49937 7.5 3.49937C7.36722 3.49937 7.23989 3.55211 7.146 3.646C7.05211 3.73989 6.99937 3.86722 6.99937 4C6.99937 4.13278 7.05211 4.26011 7.146 4.354L9.293 6.5H3.5C3.36739 6.5 3.24021 6.55268 3.14645 6.64645C3.05268 6.74021 3 6.86739 3 7ZM0.5 14C0.367392 14 0.240215 13.9473 0.146447 13.8536C0.0526785 13.7598 0 13.6326 0 13.5V0.5C0 0.367392 0.0526785 0.240215 0.146447 0.146447C0.240215 0.0526784 0.367392 0 0.5 0C0.632608 0 0.759785 0.0526784 0.853553 0.146447C0.947321 0.240215 1 0.367392 1 0.5V13.5C1 13.6326 0.947321 13.7598 0.853553 13.8536C0.759785 13.9473 0.632608 14 0.5 14Z" fill="#F8F8F8"/>
</svg>
