<svg width="73" height="25" viewBox="0 0 73 25" fill="none" xmlns="http://www.w3.org/2000/svg">
<path d="M6.496 24.248C4.832 24.248 3.38133 23.7467 2.144 22.744C0.842667 21.6987 0.192 20.3333 0.192 18.648C0.192 17.1333 0.714667 15.8213 1.76 14.712C2.82667 13.5813 4.11733 13.016 5.632 13.016C6.592 13.016 7.49867 13.336 8.352 13.976C9.29067 14.68 9.76 15.5013 9.76 16.44C9.76 17.3787 9.33333 17.848 8.48 17.848C8.16 17.848 8 17.6667 8 17.304C8 16.9627 8.17067 16.7813 8.512 16.76C8.66133 16.76 8.736 16.6747 8.736 16.504C8.736 15.9067 8.384 15.352 7.68 14.84C7.01867 14.328 6.34667 14.072 5.664 14.072C4.448 14.072 3.40267 14.52 2.528 15.416C1.67467 16.2907 1.248 17.368 1.248 18.648C1.248 20.0773 1.792 21.2293 2.88 22.104C3.84 22.808 4.93867 23.16 6.176 23.16C8.13867 23.16 9.984 22.424 11.712 20.952C13.4187 19.5013 14.752 17.4853 15.712 14.904C15.7547 14.7973 15.8827 14.3387 16.096 13.528C16.3093 12.696 16.6187 11.512 17.024 9.976C17.536 8.03467 18.24 6.47733 19.136 5.304C18.816 5.24 18.3253 5.10133 17.664 4.888C17.024 4.65333 16.2027 4.35467 15.2 3.992C13.664 3.39467 12.192 3.096 10.784 3.096C9.248 3.096 7.91467 3.45867 6.784 4.184C5.48267 5.016 4.832 6.12533 4.832 7.512C4.832 8.06667 4.98133 8.55733 5.28 8.984C5.6 9.38933 6.02667 9.592 6.56 9.592C6.816 9.592 7.08267 9.528 7.36 9.4C7.65867 9.25067 7.84 9.176 7.904 9.176C8.288 9.176 8.48 9.34667 8.48 9.688C8.48 9.944 8.23467 10.1893 7.744 10.424C7.36 10.616 7.008 10.712 6.688 10.712C5.83467 10.712 5.13067 10.392 4.576 9.752C4.02133 9.112 3.744 8.36533 3.744 7.512C3.744 5.80533 4.512 4.42933 6.048 3.384C7.43467 2.44533 8.992 1.976 10.72 1.976C12.1067 1.976 13.728 2.31733 15.584 3L17.728 3.8C18.1333 3.94933 18.5173 4.06667 18.88 4.152C19.2427 4.23733 19.5947 4.30133 19.936 4.344C20.9173 3.40533 21.856 2.936 22.752 2.936C23.4987 2.936 23.872 3.256 23.872 3.896C23.872 4.94133 22.7093 5.47467 20.384 5.496C19.104 6.968 18.2507 8.89867 17.824 11.288H26.88C27.264 10.072 27.6693 8.94133 28.096 7.896C28.544 6.85067 29.0133 5.90133 29.504 5.048C31.04 2.25333 32.576 0.855999 34.112 0.855999C34.7307 0.855999 35.04 1.048 35.04 1.432C35.04 1.79467 34.912 1.976 34.656 1.976H34.144C32.864 1.976 31.584 3.20267 30.304 5.656C29.7707 6.65867 29.2693 7.8 28.8 9.08C28.3307 10.36 27.8933 11.768 27.488 13.304C27.1253 14.712 26.848 15.9813 26.656 17.112C26.4853 18.2213 26.4 19.1813 26.4 19.992C26.4 21.4 26.5387 22.168 26.816 22.296C27.0293 22.3813 27.136 22.5627 27.136 22.84C27.136 23.1387 27.0187 23.288 26.784 23.288C25.8027 23.288 25.312 22.36 25.312 20.504C25.312 19.0747 25.408 17.688 25.6 16.344C25.8133 15 26.1227 13.6773 26.528 12.376H17.6C16.192 17.9653 13.7173 21.624 10.176 23.352C9.00267 23.9493 7.776 24.248 6.496 24.248ZM34.4815 23.288C33.1375 23.288 32.0922 22.7547 31.3455 21.688C30.7482 20.7707 30.4495 19.608 30.4495 18.2C30.4495 16.7493 30.7908 15.256 31.4735 13.72C32.2202 12.056 33.2122 10.9147 34.4495 10.296C34.9188 10.0613 35.3242 9.944 35.6655 9.944C36.0282 9.944 36.3268 10.0613 36.5615 10.296C37.0948 9.93333 37.6282 9.752 38.1615 9.752C39.1642 9.752 39.9322 10.2747 40.4655 11.32C40.8922 12.1307 41.1055 13.0587 41.1055 14.104C41.1055 16.0453 40.5082 17.9973 39.3135 19.96C37.9695 22.1787 36.3588 23.288 34.4815 23.288ZM34.4495 22.168C35.9642 22.168 37.3082 21.1973 38.4815 19.256C39.5055 17.528 40.0175 15.8213 40.0175 14.136C40.0175 13.432 39.8682 12.728 39.5695 12.024C39.2282 11.2347 38.7588 10.84 38.1615 10.84C37.5002 10.84 36.9242 11.2133 36.4335 11.96C35.9428 12.7067 35.6975 13.4427 35.6975 14.168C35.6975 15.064 36.0282 15.512 36.6895 15.512C37.0308 15.512 37.2015 15.6933 37.2015 16.056C37.2015 16.4187 37.0308 16.6 36.6895 16.6C35.3242 16.6 34.6415 15.8107 34.6415 14.232C34.6415 13.0373 35.0148 11.9707 35.7615 11.032C35.7402 11.0107 35.7082 11 35.6655 11C35.5588 11 35.3135 11.0853 34.9295 11.256C33.9268 11.8107 33.0948 12.8133 32.4335 14.264C31.8362 15.544 31.5375 16.8453 31.5375 18.168C31.5375 19.2347 31.7508 20.1413 32.1775 20.888C32.7108 21.7413 33.4682 22.168 34.4495 22.168ZM56.9568 23.288C55.3141 23.288 54.4928 22.4987 54.4928 20.92C54.4928 19.9173 55.0154 18.008 56.0608 15.192C56.5301 13.912 56.7648 13.0587 56.7648 12.632C56.7648 11.7573 56.4234 11.32 55.7408 11.32C54.9941 11.32 54.2688 11.6827 53.5648 12.408C52.3914 13.5813 51.4634 14.808 50.7808 16.088C50.3968 16.8347 49.9274 17.9013 49.3728 19.288C49.0741 20.0773 48.8074 20.7493 48.5728 21.304C48.3381 21.8373 48.1461 22.2747 47.9968 22.616C47.8901 22.7867 47.7621 22.872 47.6128 22.872C47.4421 22.872 47.2714 22.8187 47.1008 22.712C46.9514 22.584 46.8768 22.456 46.8768 22.328C46.8768 22.2 47.0368 21.784 47.3568 21.08C48.9781 17.3253 49.7888 14.7333 49.7888 13.304C49.7888 12.1733 49.4048 11.608 48.6368 11.608C47.7834 11.608 46.9408 12.088 46.1088 13.048C44.9354 14.3493 44.0074 15.8747 43.3248 17.624C43.0474 18.4773 42.7594 19.32 42.4608 20.152C42.1834 20.984 41.9061 21.8267 41.6288 22.68C41.5434 22.8933 41.4047 23 41.2127 23C40.7861 23 40.5727 22.7973 40.5727 22.392L42.3968 16.6C43.1008 14.3173 43.4528 12.3333 43.4528 10.648C43.4528 10.2853 43.6448 10.104 44.0288 10.104C44.3701 10.104 44.5408 10.3387 44.5408 10.808C44.5408 11.2133 44.5194 11.6507 44.4768 12.12C44.4341 12.568 44.3701 13.0373 44.2848 13.528C44.4768 13.2507 44.6581 12.9947 44.8288 12.76C45.0208 12.5253 45.2021 12.3227 45.3728 12.152C46.5248 11 47.6981 10.424 48.8928 10.424C50.2794 10.424 50.9728 11.4053 50.9728 13.368V13.784C51.3354 13.2293 51.6981 12.7493 52.0608 12.344C52.4448 11.9173 52.8394 11.5653 53.2448 11.288C54.3114 10.52 55.2394 10.136 56.0288 10.136C57.3088 10.136 57.9488 10.9573 57.9488 12.6C57.9488 13.0907 57.6928 14.0293 57.1808 15.416C56.8181 16.3973 56.4661 17.3893 56.1248 18.392C55.7834 19.3947 55.6128 20.184 55.6128 20.76C55.6128 21.6987 56.0501 22.168 56.9248 22.168C57.6928 22.168 58.4501 21.8693 59.1968 21.272C59.9648 20.6533 60.5941 19.9813 61.0848 19.256C61.1274 19.1707 61.2341 19.0213 61.4048 18.808C61.5754 18.5733 61.7141 18.456 61.8208 18.456C62.1834 18.456 62.3648 18.6053 62.3648 18.904C62.3648 18.9467 62.3434 19.0213 62.3008 19.128C62.2581 19.2347 62.2154 19.3093 62.1728 19.352C61.8528 20.0133 61.3941 20.6533 60.7968 21.272C60.1994 21.8693 59.5594 22.36 58.8768 22.744C58.2154 23.1067 57.5754 23.288 56.9568 23.288ZM66.3738 23.416C64.7738 23.416 63.5364 22.9147 62.6618 21.912C61.7871 20.9093 61.3498 19.608 61.3498 18.008C61.3498 15.6187 62.1498 13.6773 63.7498 12.184C65.1364 10.8613 66.6618 10.2 68.3258 10.2C69.2004 10.2 69.9044 10.424 70.4378 10.872C70.9924 11.2987 71.2698 11.9173 71.2698 12.728C71.2698 14.008 70.5444 15.0533 69.0938 15.864C67.8351 16.5467 66.3951 16.888 64.7738 16.888C63.8991 16.888 63.1844 16.7813 62.6298 16.568C62.5871 16.8027 62.5444 17.048 62.5018 17.304C62.4804 17.5387 62.4698 17.7733 62.4698 18.008C62.4698 19.3093 62.8004 20.376 63.4618 21.208C64.1231 22.0187 65.0831 22.424 66.3418 22.424C68.6031 22.424 70.4058 21.368 71.7498 19.256C71.9204 19 72.0698 18.7973 72.1978 18.648C72.3258 18.4987 72.4751 18.424 72.6458 18.424C72.8591 18.424 72.9658 18.552 72.9658 18.808C72.9658 18.9573 72.9444 19.0747 72.9018 19.16C72.8804 19.2453 72.8591 19.3093 72.8378 19.352C72.1124 20.5893 71.1738 21.5813 70.0218 22.328C68.8698 23.0533 67.6538 23.416 66.3738 23.416ZM64.6778 15.8C66.0431 15.8 67.2591 15.5333 68.3258 15C69.5631 14.4027 70.1818 13.624 70.1818 12.664C70.1818 11.7467 69.5311 11.288 68.2298 11.288C67.0564 11.288 65.9684 11.7253 64.9658 12.6C64.0698 13.368 63.3871 14.3387 62.9178 15.512C63.4084 15.704 63.9951 15.8 64.6778 15.8Z" fill="#212121"/>
</svg>
