<svg width="24" height="31" viewBox="0 0 24 31" fill="none" xmlns="http://www.w3.org/2000/svg">
<path fill-rule="evenodd" clip-rule="evenodd" d="M17.4551 15.2715C17.4551 14.9822 17.3402 14.7047 17.1356 14.5002C16.931 14.2956 16.6536 14.1807 16.3643 14.1807L3.72601 14.1807L8.40999 9.49886C8.61482 9.29403 8.72989 9.01623 8.72989 8.72656C8.72989 8.43689 8.61482 8.15908 8.40999 7.95426C8.20517 7.74943 7.92736 7.63436 7.63769 7.63436C7.34802 7.63436 7.07022 7.74943 6.86539 7.95426L0.320471 14.4992C0.218885 14.6005 0.13829 14.7209 0.0832996 14.8534C0.028307 14.9859 1.90735e-06 15.128 1.90735e-06 15.2715C1.90735e-06 15.415 0.028307 15.557 0.0832996 15.6896C0.13829 15.8221 0.218885 15.9425 0.320471 16.0438L6.86539 22.5887C7.07022 22.7935 7.34802 22.9086 7.63769 22.9086C7.92736 22.9086 8.20517 22.7935 8.40999 22.5887C8.61482 22.3839 8.72989 22.1061 8.72989 21.8164C8.72989 21.5267 8.61482 21.2489 8.40999 21.0441L3.72601 16.3623H16.3643C16.6536 16.3623 16.931 16.2474 17.1356 16.0428C17.3402 15.8382 17.4551 15.5608 17.4551 15.2715ZM22.9092 -7.62939e-06C23.1985 -7.62939e-06 23.4759 0.114918 23.6805 0.319487C23.8851 0.524055 24 0.80151 24 1.09081L24 29.4521C24 29.7415 23.8851 30.0189 23.6805 30.2235C23.4759 30.428 23.1985 30.543 22.9092 30.543C22.6199 30.543 22.3424 30.428 22.1379 30.2235C21.9333 30.0189 21.8184 29.7415 21.8184 29.4521L21.8184 1.09081C21.8184 0.80151 21.9333 0.524055 22.1379 0.319487C22.3424 0.114918 22.6199 -7.62939e-06 22.9092 -7.62939e-06Z" fill="#CB1B16"/>
</svg>
